<svg xmlns="http://www.w3.org/2000/svg" viewBox="0 0 3010.96 2132.53"><g opacity="0.2"><ellipse cx="1505.48" cy="1931.24" rx="1505.48" ry="201.3" fill="#000072"/></g><path d="M960.61,1925.37H401.87c-334,0-334-297.12,0-297.12H755.08" fill="#60547b"/><g opacity="0.3"><path d="M960.62,1925.36H401.87c-158.18,0-241.43-66.63-249.79-136.8,41.46,31.78,107.38,53.55,197.85,53.55H903Z" fill="#000072"/></g><g opacity="0.55"><path d="M960.62,1925.36h-4.25L774,1661.64H420.76c-193.18,0-274.63,99.44-244.36,183.26-69.46-88,5.71-216.65,225.47-216.65h353.2Z" fill="#fff"/></g><path d="M2578.18,1964.41c-7.6.24-15.39.33-23.33.33H1372.43c-10.39-.33-20.4-.94-30-1.7-346.4-28.09-196.86-327.8,428.85-306.22l-570.88-388.29A1195.5,1195.5,0,0,1,1316.09,1164c140.62-111.11,296.59-182,449.11-212.63,191.71-38.58,377.85-13.6,520.83,74.89,166.73,103,274.77,292.33,264.62,567.67a536.19,536.19,0,0,1,71.26,14.31,474.44,474.44,0,0,1,53.31,18C2903.85,1719.34,2937.57,1954.73,2578.18,1964.41Z" fill="#fff"/><path d="M2554.85,1967.24H1372.43c-9.55-.3-19.41-.86-30.23-1.71-117.22-9.5-187.92-52.07-184.51-111.08,3-51.25,62.43-104.14,159.08-141.48,79.57-30.73,221.22-65.69,446-58.93l-566.23-385.11,2.08-2.14a1199.7,1199.7,0,0,1,116-104.72c136.21-107.61,291.87-181.31,450.17-213.11,195.19-39.28,380.8-12.57,522.64,75.21,180.3,111.42,274.68,312.93,265.88,567.63a536.85,536.85,0,0,1,69.33,14.07,478.12,478.12,0,0,1,53.6,18.08c115.5,47,186.42,133.51,172.46,210.32-14.56,80.06-113.1,128.41-270.37,132.64h0C2571.11,1967.13,2563.46,1967.24,2554.85,1967.24Zm-847.65-309c-192.07,0-316.22,31.46-388.63,59.44-94.77,36.61-153,87.86-155.89,137.1-3.23,56,65.71,96.55,179.92,105.81,10.73.84,20.52,1.4,29.9,1.69H2554.85c8.55,0,16.16-.11,23.25-.33h0c154.69-4.16,251.5-51,265.59-128.54,13.53-74.46-56.14-158.67-169.43-204.78a472.55,472.55,0,0,0-53-17.9,534.77,534.77,0,0,0-70.93-14.24l-2.25-.3.08-2.27c9.37-253.88-84.19-454.69-263.43-565.46-140.76-87.11-325.09-113.59-519-74.56-157.53,31.65-312.46,105-448,212.14a1195.54,1195.54,0,0,0-113.41,102.14l575.57,391.48-8.64-.3Q1738,1658.18,1707.2,1658.2Z" fill="#000072"/><path d="M960.61,1941.62H401.87c-183.27,0-266.75-85.43-266.75-164.81S218.6,1612,401.87,1612H755.08a16.25,16.25,0,0,1,0,32.5H401.87c-153.79,0-234.25,66.56-234.25,132.31s80.46,132.32,234.25,132.32H960.61a16.25,16.25,0,1,1,0,32.49Z" fill="#000072"/><path d="M2019.71,1588.87c-22.29,85.66-78.71,221.37-165,300.18L1630,1776.81s-220.94-116-214.66-165.32c5.43-42.64-68.7-352.68-99.21-447.45q38.12-30.11,77.58-56.24c119.28-79.14,246.54-131.27,371.53-156.39,1.27-.24,16,2.55,38.29,10.9C1899.92,998.58,2136.63,1139.39,2019.71,1588.87Z" fill="#60547b"/><g opacity="0.55"><path d="M2522.32,1342.86C2413.71,1040.65,2103.43,922,1777,987.72c-152.52,30.64-308.48,101.52-449.1,212.63a1180.36,1180.36,0,0,0-99,87.64l-28.56-19.46A1195.5,1195.5,0,0,1,1316.09,1164c140.62-111.11,296.59-182,449.11-212.63C2104.42,883.17,2426.18,1013.88,2522.32,1342.86Z" fill="#fff"/></g><g opacity="0.3"><path d="M1683.77,1066.61c202.63,92.06,298.74,273.52,302.3,532.66.66,47.92-42.75,84.52-89.94,76.2-77.67-13.71-193.72-28.32-291.62-16.52C1440.47,1678.72,1683.77,1066.61,1683.77,1066.61Z" fill="#000072"/></g><path d="M2505.93,1294.27l-59.49-91.8-66.63-102.75c65-42.16,123.57-40.23,161.77-15.53C2604,1124.47,2612.13,1225.47,2505.93,1294.27Z" fill="#60547b"/><g opacity="0.55"><path d="M2546.58,1114.19a99.25,99.25,0,0,1,40.74,52.65c-.68-34.19-17.71-64.55-45.74-82.65-38.2-24.7-96.75-26.63-161.77,15.53l15.35,23.68C2456,1087.89,2510.42,1090.81,2546.58,1114.19Z" fill="#fff"/></g><path d="M2550.66,1610.22h-.61a16.25,16.25,0,0,1-15.64-16.84c8-217.4-58.77-392.7-193.17-507C2199.61,966,1990.82,922.59,1768.4,967.34,1613,998.56,1460.06,1071,1326.17,1176.79A1180.86,1180.86,0,0,0,1212,1279.86a16.25,16.25,0,0,1-23.3-22.65A1214.71,1214.71,0,0,1,1306,1151.29c137.89-109,295.57-183.58,456-215.81,232.23-46.72,451-.74,600.29,126.16,142.26,120.94,213,305.23,204.6,532.93A16.26,16.26,0,0,1,2550.66,1610.22Z" fill="#000072"/><path d="M1222.34,711.15C1417.12,327.76,1927.55,652.51,1655,1019" fill="#60547b"/><g opacity="0.3"><path d="M1526.52,927.59,1655,1019c100.68-135.33,94.55-265,37-355.39C1697.62,766.91,1645,875.48,1526.52,927.59Z" fill="#000072"/></g><g opacity="0.55"><path d="M1222.33,711.14l23.36,16.62C1383.27,489.75,1652,561,1726.05,744,1674.6,528.67,1364.46,431.41,1222.33,711.14Z" fill="#fff"/></g><path d="M650.9,845.81c-325-201.18-683.86,257-247.43,490.35" fill="#60547b"/><g opacity="0.55"><path d="M220.74,1155.81C176,953,409,758.3,637,873.36l13.89-27.55C398.56,689.61,125.82,930.86,220.74,1155.81Z" fill="#fff"/></g><path d="M436.69,1604.88c118.67,370.93,454.86,420.35,813.37,305.65s603.57-350.07,484.9-721S1229.47,610.89,871,725.58,318,1234,436.69,1604.88Z" fill="#fff"/><path d="M933.66,1967.51c-65.54,0-126.26-8.41-181-25.31-155.15-47.92-262.27-161.15-318.39-336.56-57.59-180-44-370.94,38.33-537.6S696.16,778.88,870.2,723.2c359.25-114.94,748.25,93.93,867.14,465.57,56.12,175.4,34.62,329.79-63.9,458.87-85.94,112.58-232.08,204.31-422.62,265.27C1137.3,1949.23,1030.25,1967.51,933.66,1967.51ZM439.08,1604.12c55.59,173.76,161.6,285.9,315.09,333.31,134.35,41.5,305.55,31.37,495.12-29.28s334.86-151.78,420.17-263.55c97.47-127.7,118.71-280.55,63.12-454.31-118.06-369-504.24-576.42-860.86-462.32C699,783.23,558.85,904.79,477.13,1070.25S381.88,1425.34,439.08,1604.12Z" fill="#000072"/><g opacity="0.3"><path d="M546.37,1806.85c160.08,182.84,425.13,192.78,703.7,103.66,358.49-114.69,603.56-350,484.9-721-62-193.74-197.12-342.92-363.12-425,84.61,80.51,151.17,183.51,189.6,303.63,118.68,371-126.39,606.32-484.88,721C883.14,1851.11,696.18,1865.21,546.37,1806.85Z" fill="#000072"/></g><path d="M933.64,1981.24c-66.93,0-129-8.61-185-25.9C589,1906,478.78,1789.77,421.22,1609.83c-58.69-183.43-44.8-378,39.1-547.88,84-170.06,228.06-295,405.69-351.84,366.47-117.24,763.22,95.6,884.43,474.47,57.56,179.94,35.33,338.54-66.07,471.4-87.65,114.83-236.12,208.21-429.36,270C1140.15,1962.75,1031.7,1981.24,933.64,1981.24ZM452.17,1599.93c54.14,169.22,157.11,278.35,306.06,324.36,131.65,40.67,300,30.55,486.87-29.23s329.84-149.28,413.43-258.8c94.59-123.92,115.1-272.55,61-441.78-115.75-361.8-494.2-565.2-843.58-453.42-169.16,54.12-306.4,173.19-386.46,335.28C409.31,1238.62,396.07,1424.57,452.17,1599.93Z" fill="#000072"/><path d="M1655,1035.23a16.24,16.24,0,0,1-13-25.94c107.37-144.36,76.76-259.08,49-314.62C1648.56,610.12,1561.7,555.31,1469.61,555h-.71c-96.12,0-178.51,58-232.08,163.47a16.25,16.25,0,1,1-29-14.72c58.54-115.22,153.67-181.24,261.08-181.24h.78c104.24.31,202.47,62.16,250.24,157.58C1773,786,1754,913,1668,1028.68A16.19,16.19,0,0,1,1655,1035.23Z" fill="#000072"/><path d="M403.46,1352.41a16.22,16.22,0,0,1-7.65-1.92c-134.53-72-209.32-173.4-210.61-285.67-1.13-98.94,56-193,149-245.58C435.49,762.08,554,766.74,659.45,832a16.25,16.25,0,1,1-17.1,27.63c-95-58.84-201.52-63.25-292.13-12.09-82.74,46.71-133.52,129.83-132.53,216.91,1.15,99.88,69.84,191.28,193.44,257.38a16.25,16.25,0,0,1-7.67,30.58Z" fill="#000072"/><path d="M960.61,752.68c-94-189.3-264.73-58.94-138.92,34.53" fill="#fff"/><path d="M820.2,789.21c-36.1-26.81-51.93-59.64-43.43-90.07,7-25,29.78-42.84,58.11-45.52,47.43-4.46,95.28,32.13,128,97.94l-4.48,2.23c-31.73-63.89-77.7-99.48-123-95.19-26.25,2.49-47.35,18.92-53.76,41.88-7.91,28.33,7.25,59.21,41.59,84.72Z" fill="#000072"/><path d="M795.3,762.1c-120-56.64-158.9,95.57-14.23,80.24" fill="#fff"/><path d="M761.93,845.89c-35.89,0-62.34-11.73-72.44-32.81-7.77-16.19-4.08-35.41,9.4-49,21.3-21.44,57.75-23,97.47-4.28l-2.13,4.52c-37.73-17.81-72-16.58-91.8,3.28-12,12-15.27,29-8.44,43.28,10.9,22.72,43.36,33.53,86.82,28.94l.53,5A185.26,185.26,0,0,1,761.93,845.89Z" fill="#000072"/><path d="M739.56,841.77c-93.32,67.26,7.78,145.22,49.87,50" fill="#fff"/><path d="M737,938.57c-1,0-1.92,0-2.89-.1a37.49,37.49,0,0,1-33.85-27.31c-6.54-22.94,7.6-49.64,37.82-71.42l2.93,4c-28.44,20.5-41.88,45.17-35.94,66a32.53,32.53,0,0,0,29.39,23.69c20.51,1.37,40.22-14.56,52.68-42.77l4.57,2C778.94,921.66,758.65,938.56,737,938.57Z" fill="#000072"/><path d="M821.68,803.46a16.2,16.2,0,0,1-9.68-3.21c-40.31-30-58.43-69.13-48.47-104.81,8.51-30.49,36-52.28,70.05-55.5,53.28-5.06,106.26,34.39,141.58,105.51a16.25,16.25,0,1,1-29.1,14.46c-29.1-58.6-70-91.3-109.42-87.62-20.53,1.94-36.95,14.46-41.81,31.89-6.3,22.54,7,48.05,36.55,70a16.25,16.25,0,0,1-9.7,29.3Z" fill="#000072"/><path d="M761,859.71c-57.61,0-77.66-27.71-83.88-40.69-10.31-21.51-5.58-46.86,12-64.59,25.6-25.75,67.88-28.38,113.1-7a16.25,16.25,0,1,1-13.87,29.39c-38-17.92-64.24-11.46-76.18.55-7.92,8-10.14,18.56-5.79,27.64,6.38,13.31,28.88,25.87,73,21.2a16.25,16.25,0,0,1,3.42,32.32A206.54,206.54,0,0,1,761,859.71Z" fill="#000072"/><path d="M737.07,952.32c-1.3,0-2.59-.05-3.9-.14a51.08,51.08,0,0,1-46.12-37.25c-8.2-28.75,7.88-61,43-86.35a16.25,16.25,0,0,1,19,26.37c-27.72,20-34.06,39.48-30.76,51.07a18.91,18.91,0,0,0,17.12,13.74c14.48,1,29.13-11.93,39.15-34.6a16.25,16.25,0,0,1,29.73,13.13C789.22,932.41,764.3,952.31,737.07,952.32Z" fill="#000072"/><path d="M938.2,1448c10.62,33.19,58,67.63,98.66,54.62s59.25-68.55,48.63-101.75-46.43-31.52-87.1-18.51S927.58,1414.77,938.2,1448Z" fill="#000072"/><path d="M1200.36,1667.07c-7,28.09-36.74,52.46-76.31,67.47-32.72,12.42-64.69,15.49-88.25,6.9-15.39-5.62-27.2-16.2-33.34-32.39-15.53-41,15.68-90.9,69.75-111.4s110.49-3.82,126,37.26A53.27,53.27,0,0,1,1200.36,1667.07Z" fill="#000072"/><path d="M1200.36,1667.07c-7,28.09-36.74,52.46-76.31,67.47-32.72,12.42-64.69,15.49-88.25,6.9,6.28-31,33.38-61,72.29-75.69C1141.29,1653.14,1175.38,1654.6,1200.36,1667.07Z" fill="#ff2c4b"/><path d="M1045.41,1475.07l10.16,70.23a4.87,4.87,0,0,1-9.15,2.93l-32.49-63.09a16.76,16.76,0,1,1,29.79-15.35A17,17,0,0,1,1045.41,1475.07Z" fill="#000072"/><path d="M1056.67,1263.3c82.54,32.71,146.13,101.73,195.44,198.12,13.81,27,43.11,42.32,73.26,39,151.75-16.79,212.44-206.16,87.24-356.37-163.59-193.92-391.07-93.9-401.11,47.1A72.29,72.29,0,0,0,1056.67,1263.3Z" fill="#60547b"/><path d="M897.76,1322.13c-48.22,74.55-59.93,167.67-44.14,274.77,4.42,30-10.55,59.49-37,74.27-133.31,74.41-292.65-44.56-277.89-239.55,20.66-252.86,263.95-303.46,354-194.47A72.29,72.29,0,0,1,897.76,1322.13Z" fill="#60547b"/><path d="M1238,1341.43c-19.48,0-40.08-7.08-58.38-24.52a15,15,0,1,1,20.7-21.72c24.54,23.39,52.52,17.88,69,6,15.25-10.92,28.67-33.16,16.3-59.86a15,15,0,0,1,27.22-12.61c18.79,40.55.46,77.87-26.05,96.86A84.56,84.56,0,0,1,1238,1341.43Z" fill="#000072"/><path d="M733.09,1511.68c-27.34,0-52.94-12.27-69.17-34.68a15,15,0,0,1,24.3-17.6c17,23.57,46.37,26,67.85,18,19.65-7.32,39.73-25.76,37.15-55.54a15,15,0,1,1,29.88-2.59c3.33,38.35-18.87,72.2-56.55,86.24A95.93,95.93,0,0,1,733.09,1511.68Z" fill="#000072"/><path d="M1066.22,1762.57a116.52,116.52,0,0,1-20.19-1.69c-28.52-5-49.38-21.35-58.74-46.06s-5.76-52.34,10.17-77.79c15-24,39.54-43.42,69-54.57s60.63-12.87,87.83-4.84c28.79,8.51,49.8,26.81,59.17,51.52h0c9.37,24.71,4.58,50.79-13.48,73.43-15.39,19.3-39.65,35.61-70.13,47.16C1107.38,1758.23,1085.77,1762.56,1066.22,1762.57Zm52.54-157.46a115.75,115.75,0,0,0-40.81,7.74c-22.84,8.65-41.65,23.36-52.94,41.41-10.41,16.64-13,34.06-7.34,49,5.28,13.94,16.71,22.54,34,25.56,18.32,3.21,42-.17,66.67-9.52s44.65-22.51,56.25-37c10.92-13.69,13.78-27.7,8.5-41.64h0c-5.68-15-19.17-26.31-38-31.88A92.89,92.89,0,0,0,1118.76,1605.11Z" fill="#000072"/><path d="M1867.8,1710.81q98.76,220.76-233.07,253.93h-262.3c-385.27-12.94-243.61-331.58,403.3-307.78h0A91.29,91.29,0,0,1,1867.8,1710.81Z" fill="#60547b"/><g opacity="0.55"><path d="M1783.05,1659.84h0a32.5,32.5,0,0,1-33.12,32.44c-385-6.49-579.38,111.31-578,203.38-62.75-92.69,125.09-244.79,556.3-239.83Z" fill="#fff"/></g><path d="M2554.85,1964.74H2483.6s-225.52-181.65,0-370.77c1.94-1.6,3.82-3.21,5.62-4.81C2874.15,1599.4,3025.3,1964.74,2554.85,1964.74Z" fill="#60547b"/><g opacity="0.55"><path d="M2484.22,1594.16c-1.8,1.6-3.69,3.21-5.62,4.81-6.18,5.18-12,10.36-17.48,15.52,274.65,8.17,429.44,197.19,322.72,303.87C2936.12,1817.36,2778.5,1602,2484.22,1594.16Z" fill="#fff"/></g><path d="M2554.85,1981h-1183c-113.9-3.82-191.46-33.8-218.39-84.43-14.81-27.83-12.38-60.07,6.85-90.79,30.7-49,101.54-92.38,199.47-122,112.31-34,256.36-48.86,416.54-43a16.25,16.25,0,1,1-1.2,32.47c-156.65-5.76-297,8.62-405.92,41.6-89.11,27-155.2,66.41-181.35,108.17-13.17,21-15.09,40.65-5.71,58.29,20.61,38.74,91.83,63.86,190.53,67.21H2554.85c135.59,0,232.09-32.45,264.76-89,17.64-30.57,15.58-67.81-5.81-104.85-43-74.39-165.14-149.46-341.29-149.45a16.25,16.25,0,0,1,0-32.5c189.11,0,321.81,83.22,369.44,165.7,27.43,47.52,29.49,96.3,5.8,137.35C2808.55,1943.59,2704.53,1981,2554.85,1981Z" fill="#000072"/><path d="M2505.94,1310.52a16.25,16.25,0,0,1-8.86-29.88c78.86-51.11,86.67-117.75,60.56-158-13.89-21.43-36.59-35.21-63.94-38.81-32.33-4.27-68.67,6-105,29.55a16.25,16.25,0,1,1-17.68-27.27c93.25-60.44,178.21-36.27,213.94,18.85,19.15,29.55,23.83,65.48,13.18,101.17-11.56,38.77-40.38,74-83.33,101.82A16.26,16.26,0,0,1,2505.94,1310.52Z" fill="#000072"/><g opacity="0.3"><path d="M2392,1578.23c-24.65-1.79-40.21-27.61-29.89-50.07,127.66-277.84-84.28-501.06-84.28-501.06l8.21-.8c166.73,103,274.77,292.33,264.62,567.67a536.19,536.19,0,0,1,71.26,14.31C2553.77,1591.94,2453.44,1582.69,2392,1578.23Z" fill="#000072"/></g><g opacity="0.3"><path d="M2554.85,1964.74h-28c224.24-25.17,222.26-299.09,148.93-338.19-.19-.09-.33-.19-.52-.28C2908.67,1721.32,2938.89,1964.74,2554.85,1964.74Z" fill="#000072"/></g><g opacity="0.3"><path d="M2525.58,1964.74H1372.43c-10.39-.33-20.4-.94-30-1.7l-.09,0s123.34-189.82,595.53-89.1c0,0,233,29.09,318-17C2336.13,1813.5,2365.83,1956.48,2525.58,1964.74Z" fill="#000072"/></g><path d="M2578.18,1964.41c-7.6.24-15.39.33-23.33.33C2563.78,1964.32,2571.52,1964.22,2578.18,1964.41Z" fill="#7a2938"/><path d="M2554.85,1967.24l-.12-5c8.71-.41,16.63-.52,23.52-.33v5C2571.11,1967.13,2563.46,1967.24,2554.85,1967.24Z" fill="#000072"/><g opacity="0.3"><path d="M2505.93,1294.27l-59.49-91.8-7.18-33.1c50.81,37.54,116.92-34.14,102.32-85.18C2604,1124.47,2612.13,1225.47,2505.93,1294.27Z" fill="#000072"/></g><path d="M865.16,426.45c0-.28.32-1.5.27-1.78,3.25-9.8,6-15.76,9.33-25,2.79-7.41,4.5-16.08,7.56-23.54.84-1.87,5.68-12.52,7.21-15.39,5.45-10.46,10.24-21.39,16.29-31.67.28-.05.37-1.22.32-1.5,0,0-.37-.52-.65-.47a5.12,5.12,0,0,1-2.06-.23c-15.08,3.15-30.95,5-46.31,6.44-1.74,0-8.8.92-9.43-2.74l-8-38.24c-1.19-5.29,6.16-6.25,9.21-7.06l100.13-19.63c6.65,0,7,3.72,10.33,8.07.05.28,2,1.68,2.12,2.24,4.43,7.34,4.83,16.52,6.17,24.38.67,3.94-1.24,6.28-3,9.76-4.6,12.05-8,21-14,33.3-12.5,18.31-18.28,40.4-28,60l.1.57c.24,1.4,2,1.39,2.86,1.53l8.43-1.43a130.91,130.91,0,0,0,15.35-3.83c2.56-.77,5.12-1.56,7.69-2.31a27.85,27.85,0,0,1,3.87-1.09,18.18,18.18,0,0,1,3,0,16.64,16.64,0,0,1,12.41,6.67,12.26,12.26,0,0,1,1.71,2.84,17.13,17.13,0,0,1,.57,2.4q1.29,5.34,2.59,10.67c1.47,6.09,3.48,12.28,4.47,18.46.71,4.42.86,9.05-3.3,11.93-3.8,2.63-9,2.44-13.4,2.86-5.26.49-10.52.95-15.72,1.84L944.75,456c-2.21.38-4.41,1-6.59,1.57L906,465.18l-14.7,3.5c-1.55.36-3.1.71-4.64,1.1-3.28.82-7.33-.76-10.12-2.53-5.3-3.37-6-9-6.95-14.67,0-.29-1.62-9.56-2.19-12.93C867.07,437.69,865.54,428.7,865.16,426.45Z" fill="#fff"/><path d="M1065.91,221.38c0-.2.68-.9.74-1.1,5.24-5.47,8.93-8.56,14-13.64,4.19-4,8-9.25,12.43-13.23,1.14-1,7.7-6.52,9.62-7.93,6.91-5.23,13.52-11,20.77-15.88.21.06.63-.69.69-.89,0,0-.09-.46-.29-.52a3.69,3.69,0,0,1-1.29-.8,312.86,312.86,0,0,1-32.74-10.31c-1.15-.54-6.12-2.16-5.38-4.78l6.76-27.86c.88-3.88,6-2.21,8.33-1.78l72.58,18.5c4.4,2.11,3.46,4.67,4.31,8.6-.06.2.81,1.75.69,2.15.63,6.26-2,12.48-3.58,18.12-.79,2.82-2.8,3.77-5,5.53-6.85,6.55-11.92,11.42-19.77,17.68-14,8.21-24.83,21-37.41,31l-.11.41c-.28,1,.87,1.54,1.42,1.92l6,1.7a96.08,96.08,0,0,0,11.39,2.29c1.94.3,3.89.58,5.83.89a18.91,18.91,0,0,1,2.9.5,13.32,13.32,0,0,1,2,1,12.19,12.19,0,0,1,6.13,8.33,9.89,9.89,0,0,1,.24,2.42,13.62,13.62,0,0,1-.38,1.77q-.82,3.94-1.64,7.89c-.94,4.5-1.56,9.24-2.85,13.65-.92,3.16-2.28,6.27-5.94,6.87-3.35.55-6.74-1.21-9.79-2.32-3.64-1.33-7.27-2.68-11-3.73l-6.24-1.76c-1.59-.44-3.26-.69-4.86-1l-23.73-5.06L1070,257.61c-1.14-.25-2.27-.5-3.42-.73-2.43-.49-4.62-2.81-5.91-4.86-2.46-3.91-1.15-7.82,0-11.92.06-.2,1.93-6.84,2.61-9.26C1063.64,229.43,1065.45,223,1065.91,221.38Z" fill="#fff"/><path d="M941.59,105.08c-.05-.16,0-.93,0-1.1,1-6.21,2.06-10.06,3.17-16,1-4.73,1.12-10.11,2.24-14.9.32-1.21,2.18-8.09,2.83-10,2.25-6.83,4.06-13.87,6.69-20.65.17-.06.11-.77,0-.93,0,0-.28-.28-.44-.22a3.29,3.29,0,0,1-1.26.07,262,262,0,0,1-27.23,8.4c-1,.18-5.21,1.42-5.94-.72l-8.53-22.23c-1.24-3.06,3.09-4.36,4.84-5.15L976.32.11c4-.64,4.57,1.56,7,3.84.06.17,1.38.82,1.49,1.15,3.38,4,4.53,9.46,6.1,14.06.79,2.3-.13,3.9-.82,6.16-1.59,7.7-2.75,13.42-5.16,21.41-5.72,12.24-7,26.09-10.94,38.81l.11.33c.28.82,1.33.65,1.88.64l4.93-1.69A78.53,78.53,0,0,0,989.78,81l4.4-2.14a16.55,16.55,0,0,1,2.22-1,11.95,11.95,0,0,1,6.65.39,10.22,10.22,0,0,1,3.3,2.13,8,8,0,0,1,1.31,1.54,12.3,12.3,0,0,1,.58,1.39c.86,2.06,1.73,4.11,2.6,6.17,1.48,3.51,3.3,7,4.5,10.67.86,2.59,1.4,5.35-.82,7.5-2,2-5.17,2.34-7.78,3-3.11.81-6.23,1.6-9.28,2.64l-5.09,1.75c-1.3.44-2.55,1.06-3.81,1.59L970,124.38l-8.5,3.54L958.78,129c-1.9.82-4.48.26-6.34-.53-3.52-1.51-4.47-4.8-5.62-8.15-.05-.16-1.91-5.58-2.58-7.55Z" fill="#fff"/></svg>