<svg id="Layer_1" data-name="Layer 1" xmlns="http://www.w3.org/2000/svg" viewBox="0 0 3213.3 2517.59"><defs><style>.cls-1{fill:#e1e1ef;}.cls-2{fill:#a0a0a0;}.cls-3{fill:#232323;}.cls-4{opacity:0.2;}.cls-5{opacity:0.3;}.cls-6{fill:#fff;}.cls-7{fill:#00ecf2;}.cls-8{opacity:0.6;}.cls-9{fill:#f5f5f5;}.cls-10{fill:#ff8048;}.cls-11{opacity:0.4;}.cls-12{fill:#6b6b6b;}.cls-13{fill:#1fa5ff;}.cls-14{opacity:0.5;}.cls-15{fill:#ffc200;}.cls-16{fill:#29b6f6;}.cls-17{fill:#ffce00;}.cls-18{fill:#fc665e;}.cls-19{fill:#ed1b24;}.cls-20{fill:#ff900b;}.cls-21{fill:#ffa42c;}</style></defs><path class="cls-1" d="M2352.52,2396.77c280.15-221.26,460-563.94,460-948.63C2812.49,780.89,2271.58,240,1604.33,240S396.17,780.89,396.17,1448.14c0,384.74,179.87,727.46,460.08,948.72,222.6-4.15,478.34-6.52,750.4-6.52C1876.86,2390.34,2131,2392.67,2352.52,2396.77Z"/><path class="cls-2" d="M279.12,2415.33l260.25-260.26a79.2,79.2,0,0,1,82-18.78l244.06,85.05,66.13,88.18L1046.23,2336l72.75,72.74Z"/><path class="cls-3" d="M279.12,2431.58a16.25,16.25,0,0,1-11.49-27.75l260.25-260.25a96,96,0,0,1,98.89-22.64l244.06,85a16.34,16.34,0,0,1,7.65,5.6L941.05,2295l108.84,25.12a16.15,16.15,0,0,1,7.84,4.35l72.74,72.74a16.26,16.26,0,0,1-11.36,27.75l-839.86,6.61Zm316.41-283.4a63.3,63.3,0,0,0-44.67,18.39L318.68,2398.76l761.36-6-42-42L928,2325.36a16.23,16.23,0,0,1-9.35-6.09l-63.15-84.21-239.38-83.42A62.44,62.44,0,0,0,595.53,2148.18Z"/><path class="cls-2" d="M318.68,2398.76l761.36-6-42-42L928,2325.36a16.26,16.26,0,0,1-9.35-6.09l-63.15-84.21-239.38-83.42a62.45,62.45,0,0,0-20.55-3.46,63.26,63.26,0,0,0-44.65,18.39Z"/><g class="cls-4"><path class="cls-3" d="M318.68,2398.76l761.36-6-42-42L928,2325.36a16.26,16.26,0,0,1-9.35-6.09l-63.15-84.21-239.38-83.42a62.45,62.45,0,0,0-20.55-3.46,63.26,63.26,0,0,0-44.65,18.39Z"/></g><g class="cls-5"><path class="cls-6" d="M616.07,2151.64a62.45,62.45,0,0,0-20.55-3.46,63.26,63.26,0,0,0-44.65,18.39l-43.23,43.22-95.84,95.85-93.12,93.12,37.32-.3,76.63-76.62c17.6,2.14,42-9.12,61.85-30.32,17.95-19.15,27.58-41.43,26.87-58.41l57.39-57.39a62.87,62.87,0,0,1,57.85-16.93Z"/></g><g class="cls-5"><path class="cls-6" d="M704.12,2299.61l31.65,20.06,187.63,3.82a16.14,16.14,0,0,1-4.8-4.22l-63.15-84.21-239.38-83.42a62.45,62.45,0,0,0-20.55-3.46,63.2,63.2,0,0,0-8.91.7Z"/></g><path class="cls-3" d="M937.82,2338.24c-.23,0-.47,0-.7,0l-190.69-11.44a99.59,99.59,0,0,1-74.76-40.86L570.79,2147.69A11.61,11.61,0,1,1,589.55,2134l100.88,138.24a76.5,76.5,0,0,0,57.39,31.36L938.51,2315a11.61,11.61,0,0,1-.69,23.2Z"/><path class="cls-2" d="M931.09,2412.65l147.71-84a86.61,86.61,0,0,1,70.2-6.88l280.79,93.6S935.83,2407.9,931.09,2412.65Z"/><path class="cls-3" d="M1429.8,2431.58h-.25c-186-2.8-468.69-5.93-494.09-3.27a16.26,16.26,0,0,1-15.87-27.16,11.68,11.68,0,0,1,3.46-2.63h0l147.71-84a103,103,0,0,1,83.39-8.17l280.78,93.59a16.26,16.26,0,0,1-5.13,31.68Zm-425-36.94c38.14,0,94.32.46,177.58,1.31,50.3.51,100.77,1.13,142.89,1.67l-181.41-60.47a70.42,70.42,0,0,0-57,5.6l-91.24,51.9Z"/><g class="cls-4"><path class="cls-3" d="M999.26,2394.8H1011c41.61,0,99.27.41,171.36,1.14,50.3.51,100.77,1.13,142.9,1.67l-181.42-60.47a70.47,70.47,0,0,0-57,5.59l-91.52,52.06Z"/></g><g class="cls-5"><path class="cls-6" d="M1325.28,2397.62l-181.42-60.47a70.08,70.08,0,0,0-19.42-3.46l-.12.27,76.44,62.18C1244.86,2396.61,1288.28,2397.15,1325.28,2397.62Z"/></g><polygon class="cls-2" points="1343.82 2415.33 1436.4 2349.2 1577.48 2340.38 1727.38 2415.33 1343.82 2415.33"/><path class="cls-3" d="M1727.38,2431.58H1343.82a16.25,16.25,0,0,1-9.44-29.48L1427,2336a16.2,16.2,0,0,1,8.43-3l141.08-8.82a16.33,16.33,0,0,1,8.29,1.69l149.89,74.94a16.26,16.26,0,0,1-7.27,30.8Zm-332.83-32.51h264l-84.39-42.19-132.06,8.25Z"/><path class="cls-2" d="M1868.46,2410.92l136.67-132.26,356.28-65.53a110.69,110.69,0,0,1,53.69,3.42l498.22,159.1,44.09,39.68Z"/><path class="cls-3" d="M2957.41,2431.58h-.07l-1088.95-4.41a16.26,16.26,0,0,1-11.24-27.94L1993.82,2267a16.21,16.21,0,0,1,8.37-4.3l356.28-65.53a127.44,127.44,0,0,1,61.58,3.93l498.22,159.09a16.12,16.12,0,0,1,5.92,3.41l44.09,39.67a16.26,16.26,0,0,1-10.87,28.34Zm-1048.94-36.76,1006.38,4.08-9.81-8.83-494.88-158a94.74,94.74,0,0,0-45.81-2.92l-351.45,64.64Z"/><g class="cls-4"><path class="cls-3" d="M1868.46,2410.92l136.67-132.26,356.28-65.53a110.69,110.69,0,0,1,53.69,3.42l498.22,159.1,44.09,39.68Z"/></g><g class="cls-5"><path class="cls-6" d="M2364.35,2229.12l-328.08,60.34,102.2,76.65L2379,2227.65A93.23,93.23,0,0,0,2364.35,2229.12Z"/></g><g class="cls-5"><path class="cls-6" d="M2372.11,2228.07c2.22-.22,4.45-.26,6.68-.32l.18-.1C2376.68,2227.7,2374.39,2227.85,2372.11,2228.07Z"/></g><g class="cls-5"><path class="cls-6" d="M2905,2390.07l-276.17-88.19-114.18-36.46L2410.16,2232a94.5,94.5,0,0,0-31.37-4.29l-23.95,13.79a94.78,94.78,0,0,1,41.38,3.59l117.6,37.55c5.08,13.9,22.32,28.66,45.55,37.26,26.67,9.87,52.61,8.44,63.87-2.32l254,81.13,37.57.15Z"/></g><path class="cls-3" d="M2131.5,2375.4a11.59,11.59,0,0,1-6.44-2l-125.4-83.6a11.61,11.61,0,0,1,12.88-19.32l119.6,79.73L2396,2208a11.61,11.61,0,1,1,11,20.44L2137,2374A11.65,11.65,0,0,1,2131.5,2375.4Z"/><path class="cls-2" d="M1775.88,2410.92l39.87-32.84a130.06,130.06,0,0,1,80.51-29.64l219.09-3.65,105.8,70.54Z"/><path class="cls-3" d="M2221.15,2431.58H2221l-445.28-4.41a16.26,16.26,0,0,1-10.17-28.8l39.88-32.84a146.85,146.85,0,0,1,90.57-33.35l219.09-3.65a16.69,16.69,0,0,1,9.29,2.73l105.8,70.54a16.25,16.25,0,0,1-9,29.78Zm-400.5-36.48,346,3.43-56.1-37.41-214,3.57a114.25,114.25,0,0,0-70.45,25.94Z"/><path class="cls-3" d="M1211.85,2421.85a11.52,11.52,0,0,1-7.6-2.84l-104.51-90.57a11.61,11.61,0,0,1,15.21-17.55l104.5,90.57a11.61,11.61,0,0,1-7.6,20.39Z"/><path class="cls-7" d="M2079.83,468s120.77-31.41,232.24,142.12c0,0,179.07,290.5,29.57,418.2l-28-16.26Z"/><path class="cls-3" d="M2341.63,1046.88a18.53,18.53,0,0,1-9.31-2.5l-28-16.25a18.66,18.66,0,0,1-7.75-8.74L2062.76,475.32A18.59,18.59,0,0,1,2075.15,450c5.48-1.42,135.16-32.7,252.55,150,7.84,12.71,185.77,305.92,26,442.37A18.56,18.56,0,0,1,2341.63,1046.88Zm-13.39-47.81,10.81,6.26c118.22-120.56-41.13-382.77-42.79-385.48-75-116.72-152.06-134.7-189.24-135.64Z"/><g class="cls-8"><path class="cls-6" d="M2323.58,671.06c-14.89-30.73-26.88-50.47-27.33-51.2-24-37.38-48.28-64.57-71.41-84.36-48.84-41.78-92.57-50.42-117.77-51.18L2123.68,523c24.46,3.63,58.3,14.8,95.47,44.9,2.95,16.54,11.52,36.58,25,56.07,19.61,28.39,44,47.52,62.19,50.71,21.33,39,69.54,136.2,75.67,228.06C2388.09,821,2350.92,727.45,2323.58,671.06Z"/></g><g class="cls-4"><path class="cls-3" d="M2313.06,611.74c29.74,91.63,42.74,204.94-36.45,272.58l-23.83-13.81,60.82,141.54,28,16.26C2484.66,906.15,2327,635,2313.06,611.74Z"/></g><rect class="cls-9" x="1438.38" y="1262.8" width="106.95" height="276.3"/><path class="cls-3" d="M1545.34,1557.67h-107a18.57,18.57,0,0,1-18.57-18.57V1262.8a18.58,18.58,0,0,1,18.57-18.58h107a18.58,18.58,0,0,1,18.58,18.58v276.3A18.57,18.57,0,0,1,1545.34,1557.67ZM1457,1520.52h69.8V1281.38H1457Z"/><path class="cls-10" d="M992.69,2399.2a57.94,57.94,0,0,1-48.15-90.08l481.29-721.94a57.93,57.93,0,1,1,96.41,64.27l-481.3,721.94A57.87,57.87,0,0,1,992.69,2399.2Z"/><path class="cls-3" d="M992.69,2417.78a76.52,76.52,0,0,1-63.61-119l481.29-722a76.51,76.51,0,0,1,127.33,84.88L1056.4,2383.7A76.42,76.42,0,0,1,992.69,2417.78ZM1474.1,1580a39.38,39.38,0,0,0-32.82,17.52L960,2319.43a39.35,39.35,0,1,0,65.48,43.65l481.3-721.94A39.34,39.34,0,0,0,1474.1,1580Z"/><g class="cls-11"><path class="cls-6" d="M983.22,2328.71l481.29-721.93a39.36,39.36,0,0,1,32.81-17.52c.76,0,1.52.12,2.28.16a39.58,39.58,0,0,0-3.74-2.85,39.37,39.37,0,0,0-54.57,10.92L960,2319.43A39.41,39.41,0,0,0,970.91,2374a39,39,0,0,0,19.51,6.45A39.4,39.4,0,0,1,983.22,2328.71Z"/></g><path class="cls-10" d="M1991,2399.2a57.86,57.86,0,0,1-48.25-25.81l-481.3-721.94a57.93,57.93,0,0,1,96.41-64.27l481.3,721.94A57.95,57.95,0,0,1,1991,2399.2Z"/><path class="cls-3" d="M1991,2417.78a76.4,76.4,0,0,1-63.72-34.08L1446,1661.75a76.51,76.51,0,1,1,127.32-84.88l481.29,722a76.52,76.52,0,0,1-63.6,119ZM1509.6,1579.94a39.36,39.36,0,0,0-32.66,61.2l481.3,722a39.35,39.35,0,0,0,65.49-43.66l-481.3-721.95a39.13,39.13,0,0,0-25-16.77A39.67,39.67,0,0,0,1509.6,1579.94Z"/><g class="cls-11"><path class="cls-6" d="M2023.72,2319.43l-481.29-721.95a39.13,39.13,0,0,0-25-16.77,39.74,39.74,0,0,0-7.8-.77,39.19,39.19,0,0,0-35.35,22.39,38.88,38.88,0,0,1,16.77-3.81,39.74,39.74,0,0,1,7.8.77,39.13,39.13,0,0,1,25,16.77L2005.15,2338a39.36,39.36,0,0,1,2.69,38.82,40.47,40.47,0,0,0,5-2.81A39.4,39.4,0,0,0,2023.72,2319.43Z"/></g><path class="cls-10" d="M1491.86,2412.56a57.93,57.93,0,0,1-57.93-57.93V1637.14a57.93,57.93,0,1,1,115.86,0v717.49A57.93,57.93,0,0,1,1491.86,2412.56Z"/><path class="cls-3" d="M1491.86,2431.14a76.59,76.59,0,0,1-76.51-76.51V1637.14a76.51,76.51,0,0,1,153,0v717.49A76.59,76.59,0,0,1,1491.86,2431.14Zm0-833.36a39.4,39.4,0,0,0-39.35,39.36v717.49a39.36,39.36,0,0,0,78.71,0V1637.14A39.41,39.41,0,0,0,1491.86,1597.78Z"/><g class="cls-11"><path class="cls-6" d="M1480.37,2354.63V1637.14a39.39,39.39,0,0,1,25.42-36.76,39.23,39.23,0,0,0-53.28,36.76v717.49a39.26,39.26,0,0,0,53.28,36.76A39.4,39.4,0,0,1,1480.37,2354.63Z"/></g><rect class="cls-12" x="1338.58" y="1525.35" width="306.55" height="106.95" rx="53.48"/><path class="cls-3" d="M1591.66,1650.88h-199.6a72.06,72.06,0,0,1,0-144.11h199.6a72.06,72.06,0,1,1,0,144.11Zm-199.6-107a34.9,34.9,0,1,0,0,69.8h199.6a34.9,34.9,0,1,0,0-69.8Z"/><g class="cls-4"><path class="cls-3" d="M1602.27,1526.41a53.49,53.49,0,0,1-52.41,64.09h-199.6a53.7,53.7,0,0,1-10.61-1.06,53.48,53.48,0,0,0,52.41,42.87h199.6a53.48,53.48,0,0,0,10.61-105.9Z"/></g><g class="cls-11"><path class="cls-6" d="M1380.39,1592.76a34.94,34.94,0,0,1,34.89-34.9h199.6a34.46,34.46,0,0,1,4.9.39,34.85,34.85,0,0,0-28.12-14.32h-199.6a34.88,34.88,0,0,0-4.89,69.41A34.61,34.61,0,0,1,1380.39,1592.76Z"/></g><polygon class="cls-13" points="2008.02 521.64 1376.56 796.94 1642.13 1319.92 2238.51 1059.91 2008.02 521.64"/><path class="cls-3" d="M1642.14,1338.5a18.59,18.59,0,0,1-16.57-10.17L1360,805.35a18.58,18.58,0,0,1,9.14-25.44l631.45-275.29a18.59,18.59,0,0,1,24.51,9.71l230.49,538.27a18.59,18.59,0,0,1-9.65,24.35l-596.38,260A18.57,18.57,0,0,1,1642.14,1338.5ZM1402.05,806.09l248.72,489.79,563.4-245.62L1998.3,546.15Z"/><g class="cls-14"><polygon class="cls-6" points="2011.28 576.46 1420.63 833.97 1654.39 1294.31 1671.24 1286.96 1462.43 875.77 2032.94 627.04 2011.28 576.46"/></g><path class="cls-15" d="M2010.15,450h0a76.54,76.54,0,0,1,101,38l233.6,511.79a76.53,76.53,0,0,1-38.22,101.58h0a76.53,76.53,0,0,1-101-38L1971.93,551.54A76.54,76.54,0,0,1,2010.15,450Z"/><path class="cls-3" d="M2275.39,1126.63a95.37,95.37,0,0,1-86.75-55.59L1955,559.25A95.11,95.11,0,0,1,2002.53,433h0a95.34,95.34,0,0,1,125.56,47.25L2361.69,992a95.07,95.07,0,0,1-86.3,134.59ZM2017.77,466.9a58,58,0,0,0-28.94,76.92l233.61,511.79a58,58,0,0,0,105.45-48.14l-233.6-511.78a58.1,58.1,0,0,0-76.52-28.79Z"/><g class="cls-5"><path class="cls-3" d="M2334.44,1054.89h0a76.55,76.55,0,0,1-101-38L1999.8,505.09a76.15,76.15,0,0,1-5.68-45.3,76.5,76.5,0,0,0-22.19,91.75l233.61,511.78a76.53,76.53,0,0,0,101,38h0a76.43,76.43,0,0,0,43.9-56.28A76.34,76.34,0,0,1,2334.44,1054.89Z"/></g><polygon class="cls-16" points="1332.23 1029.19 788.71 1270.53 861.82 1452.41 1394.32 1212.13 1332.23 1029.19"/><path class="cls-3" d="M861.82,1471a18.61,18.61,0,0,1-17.24-11.65l-73.1-181.88a18.57,18.57,0,0,1,9.69-23.91l543.52-241.34a18.56,18.56,0,0,1,25.13,11l62.09,182.94a18.58,18.58,0,0,1-10,22.91l-532.5,240.27A18.54,18.54,0,0,1,861.82,1471Zm-49.18-190.76,59.19,147.28,499.48-225.38-50.13-147.7Z"/><polygon class="cls-13" points="812.64 1280.23 871.83 1427.51 1371.31 1202.13 1321.18 1054.43 812.64 1280.23"/><g class="cls-14"><polygon class="cls-6" points="840.51 1331.33 1341.12 1109.04 1330.47 1077.65 821.93 1303.46 881.12 1450.73 887.37 1447.91 840.51 1331.33"/></g><path class="cls-13" d="M1371.07,886,1164.72,981.2A103.81,103.81,0,0,0,1113.06,1117l85.22,195.49a103.82,103.82,0,0,0,137.64,53.24l213.93-95.9Z"/><path class="cls-3" d="M1293.5,1393.42a122.73,122.73,0,0,1-112.25-73.56L1096,1124.38c-26.41-60.57.92-132.36,60.9-160.05l206.36-95.23a18.58,18.58,0,0,1,24.63,9l178.77,383.81a18.58,18.58,0,0,1-9.24,24.8l-213.93,95.91A122,122,0,0,1,1293.5,1393.42Zm68.55-482.83L1172.5,998.07c-41.77,19.28-60.8,69.28-42.41,111.46L1215.31,1305a85.24,85.24,0,0,0,113,43.71l196.73-88.2Z"/><g class="cls-14"><path class="cls-6" d="M1209.66,1058.45,1387,976.63l-15.61-33.53-189.55,87.49c-33.27,15.35-52,50.19-49,85.05L1215.31,1305a84.81,84.81,0,0,0,25.08,32.68l-73.14-167.78C1148.86,1127.73,1167.89,1077.73,1209.66,1058.45Z"/></g><path class="cls-15" d="M1359.57,753.6h0a70,70,0,0,1,91.94,35.83l208,470.28a70,70,0,0,1-36,92.44h0a70,70,0,0,1-92-35.83L1323.55,846A70,70,0,0,1,1359.57,753.6Z"/><path class="cls-3" d="M1595.76,1376.53a88.79,88.79,0,0,1-81.18-52.7l-208-470.28a88.54,88.54,0,1,1,162-71.63l208,470.28a88.48,88.48,0,0,1-80.77,124.33ZM1387.41,766.36a50.94,50.94,0,0,0-20.42,4.27h0a51.37,51.37,0,0,0-26.45,67.89l208,470.28a51.38,51.38,0,1,0,94-41.57l-208-470.29A51.54,51.54,0,0,0,1387.41,766.36Zm-27.84-12.76h0Z"/><g class="cls-4"><path class="cls-3" d="M1651.38,1310.34a70,70,0,0,1-91.94-35.83l-208-470.28a69.57,69.57,0,0,1-4.18-43.7,70,70,0,0,0-23.68,85.5l208,470.29a69.9,69.9,0,0,0,132.16-12.91A69.64,69.64,0,0,1,1651.38,1310.34Z"/></g><path class="cls-15" d="M713.7,1237.1h0a75.22,75.22,0,0,0-39.08,99.65l71,159.84a75.22,75.22,0,0,0,98.42,38.6h0a75.23,75.23,0,0,0,39.08-99.66l-71-159.83A75.21,75.21,0,0,0,713.7,1237.1Z"/><path class="cls-3" d="M814.66,1559.81c-36,0-70.59-20.86-86-55.68l-71-159.83A93.81,93.81,0,0,1,706.37,1220c46.94-20.15,102,1.44,122.72,48.12l71,159.84a93.69,93.69,0,0,1-85.41,131.82Zm-71.49-310.2a56,56,0,0,0-22.14,4.56h0a56.66,56.66,0,0,0-29.44,75l71,159.83a56.87,56.87,0,0,0,74.11,29.07,56.64,56.64,0,0,0,29.43-75l-71-159.84A56.89,56.89,0,0,0,743.17,1249.61ZM713.7,1237.1h0Z"/><g class="cls-4"><path class="cls-3" d="M871.88,1479.45h0a75.22,75.22,0,0,1-98.42-38.6l-71-159.83a74.81,74.81,0,0,1-6.35-33.26,75.18,75.18,0,0,0-21.52,89l71,159.84a75.22,75.22,0,0,0,98.42,38.6h0a75.16,75.16,0,0,0,45.43-66.4A74.64,74.64,0,0,1,871.88,1479.45Z"/></g><g class="cls-14"><path class="cls-6" d="M866.11,1443.07l-71-159.84a56.88,56.88,0,0,0-52-33.61,56.47,56.47,0,0,0-52.54,35.92c-.51,1.29-.91,2.61-1.32,3.92a56.76,56.76,0,0,1,17.78-12.07,56.1,56.1,0,0,1,22.15-4.55,56.88,56.88,0,0,1,52,33.62l71,159.83a56.17,56.17,0,0,1,2.28,39.76,56.63,56.63,0,0,0,11.65-63Z"/></g><g class="cls-4"><path class="cls-3" d="M2181.86,1046.36l-11.25-17.77.38-.16c-385.14,165.19-700.06-226.62-715.16-245.78l-.26.11,196.16,494.72Z"/></g><g class="cls-4"><polygon class="cls-3" points="1915.32 568.25 2133.83 1093.46 2203.5 1065.59 1971.26 550.03 1915.32 568.25"/></g><circle class="cls-3" cx="1941.76" cy="656.49" r="22.86" transform="translate(856.71 2395.48) rotate(-76.72)"/><circle class="cls-3" cx="1566.85" cy="816.52" r="22.86" transform="translate(412.18 2153.85) rotate(-76.72)"/><circle class="cls-3" cx="2110.93" cy="1035.98" r="22.86" transform="translate(617.67 2852.42) rotate(-76.72)"/><circle class="cls-3" cx="1736.02" cy="1196.01" r="22.86" transform="translate(173.15 2610.79) rotate(-76.72)"/><g class="cls-14"><path class="cls-6" d="M2327.89,1007.47l-180.74-396-19.64-43h0l-33.22-72.77a58,58,0,0,0-76.51-28.79h0a57.44,57.44,0,0,0-33.06,41.77,57.69,57.69,0,0,1,19.12-13.9h0a58,58,0,0,1,76.52,28.79l34.48,75.55L2067,715l51.84,113.6,47.89-115.87L2199.25,784,2151.36,899.9,2174,949.56l47.88-115.87L2314,1035.34a57.52,57.52,0,0,1,4.11,35.16,57.95,57.95,0,0,0,9.82-63Z"/></g><g class="cls-14"><path class="cls-6" d="M1642.55,1267.23l-76.49-172.91h0l-14.77-33.39L1434.52,797a51.36,51.36,0,0,0-98.28,18,51.39,51.39,0,0,1,84.34,14.51L1445,884.7l-41.39,96.44,48.54,109.74,41.4-96.44,31.39,71-41.39,96.45,27.16,61.39,41.39-96.45,76.49,172.93a51.06,51.06,0,0,1,4.31,23.57,51.47,51.47,0,0,0,9.63-56.08Z"/></g><g class="cls-4"><path class="cls-3" d="M1149.13,1033.46l.19.35Z"/></g><g class="cls-4"><path class="cls-3" d="M1153.11,1040.73l.21.38Z"/></g><g class="cls-4"><path class="cls-3" d="M1145.66,1026.94l.12.22Z"/></g><g class="cls-4"><path class="cls-3" d="M1253.41,1336.51a84.62,84.62,0,0,0,65.62-1.72l119-53.36h0c-118.69-13.12-208.07-119.07-258.06-196-16.41-24-29.31-46-38.44-62.75-18.79,24-24.37,57.26-11.49,86.8L1215.31,1305c.92,2.11,2,4.14,3,6.14A84.61,84.61,0,0,0,1253.41,1336.51Z"/></g><circle class="cls-3" cx="1306.74" cy="1290.28" r="22.86" transform="translate(-529.63 1301.92) rotate(-45)"/><circle class="cls-3" cx="1190.62" cy="1058.04" r="22.86" transform="translate(-314.26 536.17) rotate(-22.5)"/><g class="cls-4"><polygon class="cls-3" points="1340.76 904.58 1297.78 926.25 1451.05 1302.47 1515.82 1275.31 1340.76 904.58"/></g><g class="cls-4"><path class="cls-3" d="M821.89,1264s85.73,182.48,369.06,15.27l-5.56,23.36L889,1432.52Z"/></g><g class="cls-5"><path class="cls-3" d="M1557.88,1446.46l-4.64-97.54-7.9-11.85V1262.8h-51.09v36.62l-43.2,12.34-23.22,32.51,34.6,22.87a98.87,98.87,0,0,1,44.36,82.5v89.46h38.55V1436.6Z"/></g><g class="cls-4"><polygon class="cls-3" points="1085.33 1142.59 1135.21 1321.05 1191.87 1303.01 1121.28 1130.62 1085.33 1142.59"/></g><g class="cls-4"><path class="cls-3" d="M1283.84,1999.18s-264.75,260.1-315.84,260.1c0,0-71.46,88.64,3.75,132.57,0,0,51.33,8.52,88.82-34.16Z"/></g><g class="cls-5"><polygon class="cls-3" points="1371.1 1673.39 1398.14 1840.73 1435.33 1810.31 1440.4 1632.82 1381.38 1641.54 1371.1 1673.39"/></g><g class="cls-5"><polygon class="cls-3" points="1607.61 1673.39 1580.57 1840.73 1543.38 1810.31 1538.31 1632.82 1597.32 1641.54 1607.61 1673.39"/></g><g class="cls-4"><path class="cls-3" d="M1551,1973.88s-25.58,308.63-132.41,215.73l13.94,190.44,60.38,32.51,65-46.45Z"/></g><g class="cls-4"><path class="cls-3" d="M1705.38,2011.2s108,164.48,233.37,150.55l102.18,148.63,1.32,67.94L1962,2398.63Z"/></g><g class="cls-4"><polygon class="cls-3" points="1423.19 1636.64 1423.19 1678.45 1548.55 1692.38 1549.79 1632.25 1423.19 1632 1423.19 1636.64"/></g><path class="cls-17" d="M2761.84,1835.17l-26.77,114.42c-8.78,37.54-56.79,48.71-81.24,18.91l-74.54-90.85a46.51,46.51,0,0,0-39.87-16.84l-117.09,9.9c-38.41,3.25-63.87-39-43.09-71.42l63.37-99a46.53,46.53,0,0,0,3.7-43.13l-45.6-108.29c-15-35.53,17.31-72.79,54.61-63.05l113.7,29.68a46.48,46.48,0,0,0,42.15-9.81l88.91-76.83c29.17-25.21,74.57-6,76.84,32.45l6.9,117.31a46.5,46.5,0,0,0,22.36,37.06l100.55,60.81c33,20,28.77,69.06-7.13,83.11l-109.42,42.82A46.47,46.47,0,0,0,2761.84,1835.17Z"/><path class="cls-3" d="M2689.59,2001.79a62.32,62.32,0,0,1-48.33-23L2566.72,1888a30.18,30.18,0,0,0-25.93-11l-117.09,9.9a62.77,62.77,0,0,1-58.15-96.39l63.37-99a30.21,30.21,0,0,0,2.4-28l-45.59-108.31a62.76,62.76,0,0,1,73.69-85.08l113.7,29.68a30.26,30.26,0,0,0,27.42-6.38l88.91-76.83a62.77,62.77,0,0,1,103.7,43.8l6.9,117.3a30.24,30.24,0,0,0,14.54,24.11l100.55,60.81a62.76,62.76,0,0,1-9.61,112.16l-109.43,42.81a30.24,30.24,0,0,0-18.43,21.29h0l-26.77,114.41a62.4,62.4,0,0,1-46.89,46.84A63.52,63.52,0,0,1,2689.59,2001.79Zm-146.24-157.4a62.74,62.74,0,0,1,48.51,22.95l74.54,90.84a30.25,30.25,0,0,0,52.84-12.29L2746,1831.47a62.71,62.71,0,0,1,38.24-44.15l109.43-42.82a30.25,30.25,0,0,0,4.64-54l-100.55-60.82a62.77,62.77,0,0,1-30.18-50l-6.9-117.3a30.25,30.25,0,0,0-50-21.11L2621.8,1518a62.77,62.77,0,0,1-56.89,13.24l-113.7-29.68a30.25,30.25,0,0,0-35.52,41l45.59,108.3a62.72,62.72,0,0,1-5,58.2l-63.36,99a30.24,30.24,0,0,0,28,46.45l117.09-9.9C2539.82,1844.46,2541.59,1844.39,2543.35,1844.39Zm218.49-9.22h0Z"/><g class="cls-14"><path class="cls-6" d="M2807.06,1652.85l100.55,60.82a31.57,31.57,0,0,1,5.21,4,29.6,29.6,0,0,0-14.5-27.25l-100.55-60.82a62.6,62.6,0,0,1-20-19.45A62.7,62.7,0,0,0,2807.06,1652.85Z"/></g><g class="cls-14"><path class="cls-6" d="M2402.22,1831.28l63.37-99a62.78,62.78,0,0,0,5-58.2l-6.85-16.27a62.73,62.73,0,0,1-7.43,51.25l-63.37,99a29.67,29.67,0,0,0-.42,31.93,31,31,0,0,0,4.92,6.2A30.24,30.24,0,0,1,2402.22,1831.28Z"/></g><g class="cls-14"><path class="cls-6" d="M2423.41,1561a30.24,30.24,0,0,1,37.09-36.14l113.7,29.68a62.69,62.69,0,0,0,56.89-13.24l88.91-76.83a29.69,29.69,0,0,1,31.55-5,30.77,30.77,0,0,1,9.33,6.17l-.19-3.3a30.25,30.25,0,0,0-50-21.11L2621.8,1518a62.74,62.74,0,0,1-56.89,13.24l-113.7-29.68a30.25,30.25,0,0,0-35.52,41Z"/></g><circle class="cls-3" cx="2573.24" cy="1620.82" r="36.77" transform="translate(-216.72 410.55) rotate(-8.75)"/><circle class="cls-6" cx="2585.79" cy="1617.23" r="12.53" transform="translate(320.79 3659.66) rotate(-74.07)"/><circle class="cls-3" cx="2733.4" cy="1691.55" r="36.77" transform="translate(801.98 4261.06) rotate(-84.82)"/><circle class="cls-6" cx="2727.6" cy="1679.85" r="12.53" transform="matrix(0.25, -0.97, 0.97, 0.25, 412.29, 3893.68)"/><path class="cls-3" d="M2632.64,1703,2607,1691.68a14.65,14.65,0,0,0-20.61,13.71c.46,15,5.61,33.71,26.3,42.85s38,.31,49.38-9.43a14.65,14.65,0,0,0-3.75-24.47Z"/><ellipse class="cls-18" cx="2531.76" cy="1680.02" rx="11.69" ry="27.28" transform="translate(-27.82 3317.35) rotate(-66.17)"/><ellipse class="cls-18" cx="2717.59" cy="1762.09" rx="11.69" ry="27.28" transform="translate(7.87 3536.25) rotate(-66.17)"/><path class="cls-19" d="M2600.37,1726.77a29,29,0,0,0,37.56,15.9C2624.06,1720.8,2605.79,1724.92,2600.37,1726.77Z"/><g class="cls-11"><path class="cls-6" d="M2609.6,1729.28a23.94,23.94,0,0,1,19.15,5.19c-10.39-10.54-21.92-7.88-25.74-6.58a22.5,22.5,0,0,0,7.17,9.63,21.48,21.48,0,0,1-2.73-3.6A3.07,3.07,0,0,1,2609.6,1729.28Z"/></g><g class="cls-4"><path class="cls-3" d="M2375.35,1813.39s19.22,56,30.51,55.89,155.28-9.44,155.28-9.44,111.48,134.7,120.77,134.7,46.44-18.58,46.44-18.58,27.87-148.63,32.52-153.28,190.43-60.38,162.56-134.7C2909.5,1697.27,2654,1859.84,2375.35,1813.39Z"/></g><circle class="cls-20" cx="633.99" cy="671.43" r="243.45" transform="translate(-289.08 644.96) rotate(-45)"/><path class="cls-3" d="M633.56,931.25a259.81,259.81,0,0,1-223.73-391c72.34-123.6,231.74-165.31,355.33-93s165.3,231.72,93,355.32h0A258,258,0,0,1,699.74,922.68,261.4,261.4,0,0,1,633.56,931.25Zm.82-487c-78.12,0-154.26,40.25-196.48,112.4A227.2,227.2,0,1,0,830.08,786.18h0c63.27-108.12,26.78-247.57-81.34-310.84A225.84,225.84,0,0,0,634.38,444.29Zm209.73,350.1h0Z"/><g class="cls-14"><path class="cls-6" d="M852,607.55A227.36,227.36,0,0,0,634.37,444.14a228.39,228.39,0,0,0-57.9,7.5,227.18,227.18,0,0,0-165,265.41,229,229,0,0,1,153.9-239.59c9.63,6.66,27.86,9.74,48.16,7.14s37-10.09,44.68-18.9a228.62,228.62,0,0,1,97.36,30.75c1.08.64,2.15,1.27,3.22,1.93A227.4,227.4,0,0,1,852,607.55Z"/></g><g class="cls-5"><path class="cls-3" d="M414,775.42c1.09,2.08,2.14,4.19,3.29,6.24a242.3,242.3,0,0,0,75.77,69.42C609.1,919,758.23,880,826.13,763.92A243,243,0,0,0,836,536.81q1.71,3.27,3.33,6.6c-1.93-4-3.95-7.87-6.09-11.72a241.38,241.38,0,0,0-22.64-27.84A242.82,242.82,0,0,1,788,698.13c-67.91,116-217,155.07-333.08,87.16a243.1,243.1,0,0,1-53.63-42.54,243.78,243.78,0,0,0,16,39.34C416.15,779.88,415.05,777.66,414,775.42Z"/></g><path class="cls-3" d="M959.49,529.88c-36.48-17.37-92.27-6.76-124.19,1.78q5.38,8.63,10.08,17.73c31.3-9.45,51-7.92,63.21-3.46s18,20.29,12.31,32.84c-9.09,19.83-26.94,40.06-49.74,59.76-93.59,80.85-270.91,152.86-270.91,152.86-57.38,25.16-102.86,39.2-138,46.77C421,847.06,394,847,378.91,845.53c-13.52-1.35-23.11-16.82-19.37-31.64,5.42-21.45,28.12-40.25,47.44-52.84a241.24,241.24,0,0,1-9.25-23.63c-50.91,31.79-72.35,60.44-79.57,83.45-8.77,27.93,7.84,58.45,33.65,64,43,9.21,98.28,2,155.7-13.13,149.7-39.53,314-133.43,314-133.43,17-9.61,32-19.14,45.68-28.54,72.82-50.15,101.06-96.14,111.86-125C986.88,563.86,978.18,538.77,959.49,529.88Z"/><circle class="cls-3" cx="529.43" cy="643.72" r="24.95" transform="translate(-284 825.39) rotate(-63.15)"/><circle class="cls-3" cx="696.42" cy="591.95" r="24.95" transform="translate(-173.42 311.26) rotate(-22.48)"/><path class="cls-21" d="M656.06,650.73a24.95,24.95,0,1,1-47,16.86"/><path class="cls-3" d="M632.56,693.42a34.31,34.31,0,0,1-32.21-22.69,9.29,9.29,0,0,1,17.49-6.28,15.66,15.66,0,0,0,29.48-10.58,9.29,9.29,0,0,1,17.49-6.27,34.28,34.28,0,0,1-32.25,45.82Z"/><g class="cls-5"><path class="cls-3" d="M3213.3,2443.11c0-29.14-719.32-52.77-1606.65-52.77S0,2414,0,2443.11C0,2460,240.37,2475,614.62,2484.62c80.75,18.89,393.86,33,767.8,33,313.14,0,583.61-9.87,710.71-24.18C2742.63,2486.64,3213.3,2466.68,3213.3,2443.11Z"/></g><path class="cls-3" d="M144.33,2411.77c61.54-7.64,123.09-9.46,184.63-10.4,30.77-.52,61.54-.62,92.31-.49,30.77,0,61.54.32,92.32.57q92.31.66,184.62.49H2729.12l92.31,0,46.16-.35,46.15-.62c30.78-.29,61.55.12,92.32,1.47s61.54,3.81,92.31,9.36a5,5,0,0,1,0,9.83c-30.77,5.54-61.54,7.87-92.31,9.35s-61.54,1.76-92.32,1.47l-46.15-.61-46.16-.35-92.31,0H698.21q-92.31-.1-184.62.49c-30.78.25-61.55.6-92.32.56-30.77.13-61.54,0-92.31-.48-61.54-.94-123.09-2.77-184.63-10.4a5,5,0,0,1,0-9.83Z"/><circle class="cls-3" cx="331.15" cy="1955.32" r="25.72"/><circle class="cls-3" cx="2909.08" cy="2138.92" r="29.66"/><circle class="cls-3" cx="2942.79" cy="824.76" r="24.75" transform="translate(49.31 1808.66) rotate(-34.44)"/><path class="cls-3" d="M2816.4,624.38c5.72-5.72,2.11-19.3-8-34.69a13.71,13.71,0,0,1,0-15.05c10.11-15.39,13.72-29,8-34.69s-19.3-2.11-34.69,8a13.71,13.71,0,0,1-15.05,0c-15.39-10.11-29-13.72-34.69-8s-2.1,19.3,8,34.69a13.67,13.67,0,0,1,0,15.05c-10.1,15.39-13.71,29-8,34.69s19.3,2.1,34.69-8a13.67,13.67,0,0,1,15.05,0C2797.1,626.48,2810.68,630.09,2816.4,624.38Z"/><path class="cls-3" d="M188.43,1796.16c6.57,0,12.31-9.88,15.35-24.55a11.11,11.11,0,0,1,8.65-8.65c14.67-3,24.56-8.78,24.56-15.36s-9.89-12.31-24.56-15.35a11.11,11.11,0,0,1-8.65-8.66c-3-14.66-8.78-24.55-15.35-24.55s-12.32,9.89-15.36,24.55a11.11,11.11,0,0,1-8.65,8.66c-14.67,3-24.56,8.78-24.56,15.35s9.89,12.32,24.56,15.36a11.11,11.11,0,0,1,8.65,8.65C176.11,1786.28,181.85,1796.16,188.43,1796.16Z"/><circle class="cls-3" cx="1251.42" cy="39.24" r="39.23" transform="translate(257.42 800.52) rotate(-39.24)"/><circle class="cls-3" cx="1009.72" cy="195.39" r="25.64" transform="translate(197.58 826.38) rotate(-48.8)"/></svg>